<svg xmlns="http://www.w3.org/2000/svg" viewBox="0 0 200 280" fill="none">
  <rect width="200" height="280" rx="8" fill="#e8eaf6"/>
  <rect x="16" y="0" width="8" height="280" rx="4" fill="#c5cae9"/>
  <rect x="30" y="40" width="140" height="12" rx="6" fill="#9fa8da"/>
  <rect x="30" y="62" width="100" height="8" rx="4" fill="#c5cae9"/>
  <rect x="30" y="80" width="120" height="8" rx="4" fill="#c5cae9"/>
  <g transform="translate(60,120)">
    <rect x="0" y="20" width="80" height="100" rx="4" fill="#9fa8da"/>
    <rect x="6" y="0" width="68" height="110" rx="4" fill="#3949ab"/>
    <rect x="6" y="0" width="10" height="110" rx="2" fill="#283593"/>
    <rect x="20" y="18" width="40" height="4" rx="2" fill="#c5cae9"/>
    <rect x="20" y="28" width="30" height="3" rx="1" fill="#7986cb"/>
    <rect x="20" y="36" width="35" height="3" rx="1" fill="#7986cb"/>
  </g>
  <rect x="30" y="240" width="80" height="8" rx="4" fill="#c5cae9"/>
  <rect x="30" y="256" width="60" height="6" rx="3" fill="#e0e3f7"/>
</svg>
